# xmcd
#
# Track frame offsets:
# 150
# 20043
# 43643
# 67590
#
# Disc length: 1333 seconds
#
#
# Revision: 0
# Processed by: cddbd v1.4PL0 Copyright (c) Steve Scherf et al.
# Submitted via: FreeRIP 2.30 
#
DISCID=29053304
DTITLE=Blue Rodeo - 5 Days In May - Hasn't Hit Me Yet
DYEAR=1993
DGENRE=
TTITLE0=5 Days In May (Edit)
TTITLE1=Hasn't Hit Me Yet
TTITLE2=Dark Angel
TTITLE3=5 Days In May (Album Version)
EXTD=PRO 77013
EXTT0=
EXTT1=
EXTT2=
EXTT3=
PLAYORDER=
